<?xml version="1.0" encoding="UTF-8" standalone="no"?>
<!-- Created with Inkscape (http://www.inkscape.org/) -->

<svg
   xmlns:dc="http://purl.org/dc/elements/1.1/"
   xmlns:cc="http://creativecommons.org/ns#"
   xmlns:rdf="http://www.w3.org/1999/02/22-rdf-syntax-ns#"
   xmlns:svg="http://www.w3.org/2000/svg"
   xmlns="http://www.w3.org/2000/svg"
   xmlns:sodipodi="http://sodipodi.sourceforge.net/DTD/sodipodi-0.dtd"
   xmlns:inkscape="http://www.inkscape.org/namespaces/inkscape"
   id="svg2"
   version="1.1"
   inkscape:version="0.48.5 r10040"
   width="1800"
   height="1080"
   xml:space="preserve"
   sodipodi:docname="Avionics Sled laser template.PDF"><metadata
     id="metadata8"><rdf:RDF><cc:Work
         rdf:about=""><dc:format>image/svg+xml</dc:format><dc:type
           rdf:resource="http://purl.org/dc/dcmitype/StillImage" /><dc:title></dc:title></cc:Work></rdf:RDF></metadata><defs
     id="defs6" /><sodipodi:namedview
     pagecolor="#ffffff"
     bordercolor="#666666"
     borderopacity="1"
     objecttolerance="10"
     gridtolerance="10"
     guidetolerance="10"
     inkscape:pageopacity="0"
     inkscape:pageshadow="2"
     inkscape:window-width="1280"
     inkscape:window-height="697"
     id="namedview4"
     showgrid="false"
     inkscape:zoom="0.6180637"
     inkscape:cx="903.57731"
     inkscape:cy="741.67177"
     inkscape:window-x="-8"
     inkscape:window-y="-8"
     inkscape:window-maximized="1"
     inkscape:current-layer="g10" /><g
     id="g10"
     inkscape:groupmode="layer"
     inkscape:label="Avionics Sled laser template"
     transform="matrix(1.25,0,0,-1.25,0,1080)"><path
       style="fill:none;stroke:#000000;stroke-width:0.70899999;stroke-linecap:round;stroke-linejoin:round;stroke-miterlimit:10;stroke-opacity:1;stroke-dasharray:none"
       d="m 687.2,601.3 -134.2,0"
       id="path3144" /><path
       style="fill:none;stroke:#000000;stroke-width:0.70899999;stroke-linecap:round;stroke-linejoin:round;stroke-miterlimit:10;stroke-opacity:1;stroke-dasharray:none"
       d="M 553,601.3 411,612.4 269.1,625.1 157.7,636.2 46.4,648.4"
       id="path3142" /><path
       style="fill:none;stroke:#000000;stroke-width:0.70899999;stroke-linecap:round;stroke-linejoin:round;stroke-miterlimit:10;stroke-opacity:1;stroke-dasharray:none"
       d="m 46.4,669.3 0,-20.9"
       id="path3140" /><path
       style="fill:none;stroke:#000000;stroke-width:0.70899999;stroke-linecap:round;stroke-linejoin:round;stroke-miterlimit:10;stroke-opacity:1;stroke-dasharray:none"
       d="m 46.4,669.3 -9,0"
       id="path3138" /><path
       style="fill:none;stroke:#000000;stroke-width:0.70899999;stroke-linecap:round;stroke-linejoin:round;stroke-miterlimit:10;stroke-opacity:1;stroke-dasharray:none"
       d="m 37.4,687.3 0,-18"
       id="path3136" /><path
       style="fill:none;stroke:#000000;stroke-width:0.70899999;stroke-linecap:round;stroke-linejoin:round;stroke-miterlimit:10;stroke-opacity:1;stroke-dasharray:none"
       d="m 46.4,687.3 -9,0"
       id="path3134" /><path
       style="fill:none;stroke:#000000;stroke-width:0.70899999;stroke-linecap:round;stroke-linejoin:round;stroke-miterlimit:10;stroke-opacity:1;stroke-dasharray:none"
       d="m 46.4,741.3 0,-54"
       id="path3132" /><path
       style="fill:none;stroke:#000000;stroke-width:0.70899999;stroke-linecap:round;stroke-linejoin:round;stroke-miterlimit:10;stroke-opacity:1;stroke-dasharray:none"
       d="m 46.4,741.3 -9,0"
       id="path3130" /><path
       style="fill:none;stroke:#000000;stroke-width:0.70899999;stroke-linecap:round;stroke-linejoin:round;stroke-miterlimit:10;stroke-opacity:1;stroke-dasharray:none"
       d="m 37.4,759.3 0,-18"
       id="path3128" /><path
       style="fill:none;stroke:#000000;stroke-width:0.70899999;stroke-linecap:round;stroke-linejoin:round;stroke-miterlimit:10;stroke-opacity:1;stroke-dasharray:none"
       d="m 46.4,759.3 -9,0"
       id="path3126" /><path
       style="fill:none;stroke:#000000;stroke-width:0.70899999;stroke-linecap:round;stroke-linejoin:round;stroke-miterlimit:10;stroke-opacity:1;stroke-dasharray:none"
       d="m 46.4,780.2 0,-20.9"
       id="path3124" /><path
       style="fill:none;stroke:#000000;stroke-width:0.70899999;stroke-linecap:round;stroke-linejoin:round;stroke-miterlimit:10;stroke-opacity:1;stroke-dasharray:none"
       d="m 46.4,780.2 141.7,15.4 141.8,13.5 111.5,9.6 111.6,8.5"
       id="path3122" /><path
       style="fill:none;stroke:#000000;stroke-width:0.70899999;stroke-linecap:round;stroke-linejoin:round;stroke-miterlimit:10;stroke-opacity:1;stroke-dasharray:none"
       d="m 553,827.2 134.2,0"
       id="path3120" /><path
       style="fill:none;stroke:#000000;stroke-width:0.70899999;stroke-linecap:round;stroke-linejoin:round;stroke-miterlimit:10;stroke-opacity:1;stroke-dasharray:none"
       d="m 687.2,827.2 0,9"
       id="path3118" /><path
       style="fill:none;stroke:#000000;stroke-width:0.70899999;stroke-linecap:round;stroke-linejoin:round;stroke-miterlimit:10;stroke-opacity:1;stroke-dasharray:none"
       d="m 903.2,804.3 0,39.6"
       id="path3116" /><path
       style="fill:none;stroke:#000000;stroke-width:0.70899999;stroke-linecap:round;stroke-linejoin:round;stroke-miterlimit:10;stroke-opacity:1;stroke-dasharray:none"
       d="m 1028.9,804.3 -125.7,0"
       id="path3114" /><path
       style="fill:none;stroke:#000000;stroke-width:0.70899999;stroke-linecap:round;stroke-linejoin:round;stroke-miterlimit:10;stroke-opacity:1;stroke-dasharray:none"
       d="m 1028.9,804.3 0,-9"
       id="path3112" /><path
       style="fill:none;stroke:#000000;stroke-width:0.70899999;stroke-linecap:round;stroke-linejoin:round;stroke-miterlimit:10;stroke-opacity:1;stroke-dasharray:none"
       d="m 1028.9,795.3 9,0"
       id="path3110" /><path
       style="fill:none;stroke:#000000;stroke-width:0.70899999;stroke-linecap:round;stroke-linejoin:round;stroke-miterlimit:10;stroke-opacity:1;stroke-dasharray:none"
       d="m 1037.9,795.3 0,9"
       id="path3108" /><path
       style="fill:none;stroke:#000000;stroke-width:0.70899999;stroke-linecap:round;stroke-linejoin:round;stroke-miterlimit:10;stroke-opacity:1;stroke-dasharray:none"
       d="m 1344.2,804.3 0,-9"
       id="path3106" /><path
       style="fill:none;stroke:#000000;stroke-width:0.70899999;stroke-linecap:round;stroke-linejoin:round;stroke-miterlimit:10;stroke-opacity:1;stroke-dasharray:none"
       d="m 1344.2,795.3 9,0"
       id="path3104" /><path
       style="fill:none;stroke:#000000;stroke-width:0.70899999;stroke-linecap:round;stroke-linejoin:round;stroke-miterlimit:10;stroke-opacity:1;stroke-dasharray:none"
       d="m 1353.2,795.3 0,9"
       id="path3102" /><path
       style="fill:none;stroke:#000000;stroke-width:0.70899999;stroke-linecap:round;stroke-linejoin:round;stroke-miterlimit:10;stroke-opacity:1;stroke-dasharray:none"
       d="m 1389.2,732.3 18,0"
       id="path3100" /><path
       style="fill:none;stroke:#000000;stroke-width:0.70899999;stroke-linecap:round;stroke-linejoin:round;stroke-miterlimit:10;stroke-opacity:1;stroke-dasharray:none"
       d="m 1389.2,732.3 0,-9"
       id="path3098" /><path
       style="fill:none;stroke:#000000;stroke-width:0.70899999;stroke-linecap:round;stroke-linejoin:round;stroke-miterlimit:10;stroke-opacity:1;stroke-dasharray:none"
       d="m 1389.2,723.3 -36,0"
       id="path3096" /><path
       style="fill:none;stroke:#000000;stroke-width:0.70899999;stroke-linecap:round;stroke-linejoin:round;stroke-miterlimit:10;stroke-opacity:1;stroke-dasharray:none"
       d="m 1353.2,723.3 0,-18"
       id="path3094" /><path
       style="fill:none;stroke:#000000;stroke-width:0.70899999;stroke-linecap:round;stroke-linejoin:round;stroke-miterlimit:10;stroke-opacity:1;stroke-dasharray:none"
       d="m 1389.2,705.3 -36,0"
       id="path3092" /><path
       style="fill:none;stroke:#000000;stroke-width:0.70899999;stroke-linecap:round;stroke-linejoin:round;stroke-miterlimit:10;stroke-opacity:1;stroke-dasharray:none"
       d="m 1389.2,705.3 0,-9"
       id="path3090" /><path
       style="fill:none;stroke:#000000;stroke-width:0.70899999;stroke-linecap:round;stroke-linejoin:round;stroke-miterlimit:10;stroke-opacity:1;stroke-dasharray:none"
       d="m 1389.2,696.3 18,0"
       id="path3088" /><path
       style="fill:none;stroke:#000000;stroke-width:0.70899999;stroke-linecap:round;stroke-linejoin:round;stroke-miterlimit:10;stroke-opacity:1;stroke-dasharray:none"
       d="m 1407.2,696.3 0,-72"
       id="path3086" /><path
       style="fill:none;stroke:#000000;stroke-width:0.70899999;stroke-linecap:round;stroke-linejoin:round;stroke-miterlimit:10;stroke-opacity:1;stroke-dasharray:none"
       d="m 1353.2,624.3 0,8.6"
       id="path3084" /><path
       style="fill:none;stroke:#000000;stroke-width:0.70899999;stroke-linecap:round;stroke-linejoin:round;stroke-miterlimit:10;stroke-opacity:1;stroke-dasharray:none"
       d="m 1353.2,632.9 -9,0"
       id="path3082" /><path
       style="fill:none;stroke:#000000;stroke-width:0.70899999;stroke-linecap:round;stroke-linejoin:round;stroke-miterlimit:10;stroke-opacity:1;stroke-dasharray:none"
       d="m 1344.2,632.9 0,-8.6"
       id="path3080" /><path
       style="fill:none;stroke:#000000;stroke-width:0.70899999;stroke-linecap:round;stroke-linejoin:round;stroke-miterlimit:10;stroke-opacity:1;stroke-dasharray:none"
       d="m 1037.9,624.3 0,8.6"
       id="path3078" /><path
       style="fill:none;stroke:#000000;stroke-width:0.70899999;stroke-linecap:round;stroke-linejoin:round;stroke-miterlimit:10;stroke-opacity:1;stroke-dasharray:none"
       d="m 1037.9,632.9 -9,0"
       id="path3076" /><path
       style="fill:none;stroke:#000000;stroke-width:0.70899999;stroke-linecap:round;stroke-linejoin:round;stroke-miterlimit:10;stroke-opacity:1;stroke-dasharray:none"
       d="m 1028.9,632.9 0,-8.6"
       id="path3074" /><path
       style="fill:none;stroke:#000000;stroke-width:0.70899999;stroke-linecap:round;stroke-linejoin:round;stroke-miterlimit:10;stroke-opacity:1;stroke-dasharray:none"
       d="m 1028.9,624.3 -125.7,0"
       id="path3072" /><path
       style="fill:none;stroke:#000000;stroke-width:0.70899999;stroke-linecap:round;stroke-linejoin:round;stroke-miterlimit:10;stroke-opacity:1;stroke-dasharray:none"
       d="m 903.2,624.3 0,-39.6"
       id="path3070" /><path
       style="fill:none;stroke:#000000;stroke-width:0.70899999;stroke-linecap:round;stroke-linejoin:round;stroke-miterlimit:10;stroke-opacity:1;stroke-dasharray:none"
       d="m 903.2,584.7 -77.2,0"
       id="path3068" /><path
       style="fill:none;stroke:#000000;stroke-width:0.70899999;stroke-linecap:round;stroke-linejoin:round;stroke-miterlimit:10;stroke-opacity:1;stroke-dasharray:none"
       d="m 687.2,592.3 0,9"
       id="path3066" /><path
       style="fill:none;stroke:#ff0000;stroke-width:0.70899999000000002;stroke-linecap:round;stroke-linejoin:round;stroke-miterlimit:10;stroke-opacity:1;stroke-dasharray:none"
       d="m 1357.7,755.3 -0.3,1.8 -1,1.4 -1.4,1 -1.8,0.3 -1.7,-0.3 -1.4,-1 -1,-1.4 -0.4,-1.8 0.4,-1.7 1,-1.5 1.4,-0.9 1.7,-0.4 1.8,0.4 1.4,0.9 1,1.5 0.3,1.7"
       id="path3064" /><path
       style="fill:none;stroke:#ff0000;stroke-width:0.70899999000000002;stroke-linecap:round;stroke-linejoin:round;stroke-miterlimit:10;stroke-opacity:1;stroke-dasharray:none"
       d="m 1357.7,673.3 -0.3,1.7 -1,1.4 -1.4,1 -1.8,0.4 -1.7,-0.4 -1.4,-1 -1,-1.4 -0.4,-1.7 0.4,-1.8 1,-1.4 1.4,-1 1.7,-0.3 1.8,0.3 1.4,1 1,1.4 0.3,1.8"
       id="path3062" /><path
       style="fill:none;stroke:#ff0000;stroke-width:0.70899999000000002;stroke-linecap:round;stroke-linejoin:round;stroke-miterlimit:10;stroke-opacity:1;stroke-dasharray:none"
       d="m 1120.1,755.3 -0.3,1.8 -1,1.4 -1.4,1 -1.8,0.3 -1.7,-0.3 -1.4,-1 -1,-1.4 -0.4,-1.8 0.4,-1.7 1,-1.5 1.4,-0.9 1.7,-0.4 1.8,0.4 1.4,0.9 1,1.5 0.3,1.7"
       id="path3060" /><path
       style="fill:none;stroke:#ff0000;stroke-width:0.70899999000000002;stroke-linecap:round;stroke-linejoin:round;stroke-miterlimit:10;stroke-opacity:1;stroke-dasharray:none"
       d="m 1120.1,673.3 -0.3,1.7 -1,1.4 -1.4,1 -1.8,0.4 -1.7,-0.4 -1.4,-1 -1,-1.4 -0.4,-1.7 0.4,-1.8 1,-1.4 1.4,-1 1.7,-0.3 1.8,0.3 1.4,1 1,1.4 0.3,1.8"
       id="path3058" /><path
       style="fill:none;stroke:#ff0000;stroke-width:0.70899999000000002;stroke-linecap:round;stroke-linejoin:round;stroke-miterlimit:10;stroke-opacity:1;stroke-dasharray:none"
       d="m 873.5,671.4 -0.3,1.7 -1,1.4 -1.5,1 -1.7,0.4 -1.7,-0.4 -1.5,-1 -0.9,-1.4 -0.4,-1.7 0.4,-1.8 0.9,-1.4 1.5,-1 1.7,-0.3 1.7,0.3 1.5,1 1,1.4 0.3,1.8"
       id="path3056" /><path
       style="fill:none;stroke:#ff0000;stroke-width:0.70899999000000002;stroke-linecap:round;stroke-linejoin:round;stroke-miterlimit:10;stroke-opacity:1;stroke-dasharray:none"
       d="m 873.5,617.4 -0.3,1.7 -1,1.4 -1.5,1 -1.7,0.4 -1.7,-0.4 -1.5,-1 -0.9,-1.4 -0.4,-1.7 0.4,-1.8 0.9,-1.4 1.5,-1 1.7,-0.3 1.7,0.3 1.5,1 1,1.4 0.3,1.8"
       id="path3054" /><path
       style="fill:none;stroke:#ff0000;stroke-width:0.70899999000000002;stroke-linecap:round;stroke-linejoin:round;stroke-miterlimit:10;stroke-opacity:1;stroke-dasharray:none"
       d="m 711.6,617.4 -0.4,1.7 -0.9,1.4 -1.5,1 -1.7,0.4 -1.7,-0.4 -1.5,-1 -1,-1.4 -0.3,-1.7 0.3,-1.8 1,-1.4 1.5,-1 1.7,-0.3 1.7,0.3 1.5,1 0.9,1.4 0.4,1.8"
       id="path3052" /><path
       style="fill:none;stroke:#ff0000;stroke-width:0.70899999000000002;stroke-linecap:round;stroke-linejoin:round;stroke-miterlimit:10;stroke-opacity:1;stroke-dasharray:none"
       d="m 711.6,671.4 -0.4,1.7 -0.9,1.4 -1.5,1 -1.7,0.4 -1.7,-0.4 -1.5,-1 -1,-1.4 -0.3,-1.7 0.3,-1.8 1,-1.4 1.5,-1 1.7,-0.3 1.7,0.3 1.5,1 0.9,1.4 0.4,1.8"
       id="path3050" /><path
       style="fill:none;stroke:#ff0000;stroke-width:0.70899999000000002;stroke-linecap:round;stroke-linejoin:round;stroke-miterlimit:10;stroke-opacity:1;stroke-dasharray:none"
       d="m 1033.8,678.3 -0.4,1.9 -1,1.6 -1.6,1.1 -1.9,0.3 -1.9,-0.3 -1.6,-1.1 -1.1,-1.6 -0.4,-1.9 0.4,-1.9 1.1,-1.6 1.6,-1.1 1.9,-0.4 1.9,0.4 1.6,1.1 1,1.6 0.4,1.9"
       id="path3048" /><path
       style="fill:none;stroke:#ff0000;stroke-width:0.70899999000000002;stroke-linecap:round;stroke-linejoin:round;stroke-miterlimit:10;stroke-opacity:1;stroke-dasharray:none"
       d="m 1033.8,750.3 -0.4,1.9 -1,1.6 -1.6,1.1 -1.9,0.3 -1.9,-0.3 -1.6,-1.1 -1.1,-1.6 -0.4,-1.9 0.4,-1.9 1.1,-1.6 1.6,-1.1 1.9,-0.4 1.9,0.4 1.6,1.1 1,1.6 0.4,1.9"
       id="path3046" /><path
       style="fill:none;stroke:#ff0000;stroke-width:0.70899999000000002;stroke-linecap:round;stroke-linejoin:round;stroke-miterlimit:10;stroke-opacity:1;stroke-dasharray:none"
       d="m 1033.8,714.3 -0.4,1.9 -1,1.6 -1.6,1.1 -1.9,0.3 -1.9,-0.3 -1.6,-1.1 -1.1,-1.6 -0.4,-1.9 0.4,-1.9 1.1,-1.6 1.6,-1.1 1.9,-0.4 1.9,0.4 1.6,1.1 1,1.6 0.4,1.9"
       id="path3044" /><path
       style="fill:none;stroke:#000000;stroke-width:0.70899999;stroke-linecap:round;stroke-linejoin:round;stroke-miterlimit:10;stroke-opacity:1;stroke-dasharray:none"
       d="m 903.2,843.9 -77.2,0"
       id="path3042" /><path
       style="fill:none;stroke:#000000;stroke-width:0.70899999;stroke-linecap:round;stroke-linejoin:round;stroke-miterlimit:10;stroke-opacity:1;stroke-dasharray:none"
       d="m 1407.2,804.3 0,-72"
       id="path3040" /><path
       style="fill:none;stroke:#000000;stroke-width:0.70899999;stroke-linecap:round;stroke-linejoin:round;stroke-miterlimit:10;stroke-opacity:1;stroke-dasharray:none"
       d="m 1344.2,804.3 -306.3,0"
       id="path3038" /><path
       style="fill:none;stroke:#000000;stroke-width:0.70899999;stroke-linecap:round;stroke-linejoin:round;stroke-miterlimit:10;stroke-opacity:1;stroke-dasharray:none"
       d="m 1407.2,804.3 -54,0"
       id="path3036" /><path
       style="fill:none;stroke:#000000;stroke-width:0.70899999;stroke-linecap:round;stroke-linejoin:round;stroke-miterlimit:10;stroke-opacity:1;stroke-dasharray:none"
       d="m 1344.2,624.3 -306.3,0"
       id="path3034" /><path
       style="fill:none;stroke:#000000;stroke-width:0.70899999;stroke-linecap:round;stroke-linejoin:round;stroke-miterlimit:10;stroke-opacity:1;stroke-dasharray:none"
       d="m 1407.2,624.3 -54,0"
       id="path3032" /><path
       style="fill:none;stroke:#000000;stroke-width:0.70899999;stroke-linecap:round;stroke-linejoin:round;stroke-miterlimit:10;stroke-opacity:1;stroke-dasharray:none"
       d="m 687.2,836.2 77.7,4.5 61.1,3.2"
       id="path3030" /><path
       style="fill:none;stroke:#000000;stroke-width:0.70899999;stroke-linecap:round;stroke-linejoin:round;stroke-miterlimit:10;stroke-opacity:1;stroke-dasharray:none"
       d="m 826,584.7 -77.7,4.1 -61.1,3.5"
       id="path14" /><path
       style="fill:none;stroke:#ff0000;stroke-width:0.70899999000000002;stroke-linecap:round;stroke-linejoin:round;stroke-miterlimit:10;stroke-opacity:1;stroke-dasharray:none"
       d="m 1004.7,601 0,0.7 -0.1,0.7 -0.1,0.6 -0.2,0.7 -0.2,0.6 -0.3,0.7 -0.3,0.6 -0.4,0.5 -0.4,0.6 -0.5,0.5 -0.4,0.5 -0.6,0.4 -0.5,0.4 -0.6,0.4 -0.6,0.3 -0.6,0.2 -0.7,0.3 -0.6,0.1 -0.7,0.1 -0.7,0.1 -0.7,0 -0.7,0 -0.6,-0.1 -0.7,-0.1 -0.7,-0.2 -0.6,-0.3 -0.6,-0.3 -0.6,-0.3 -0.6,-0.4 -0.5,-0.4 -0.5,-0.5 -0.5,-0.4 -0.4,-0.6 -0.4,-0.5 -0.3,-0.6 -0.3,-0.6 -0.3,-0.7 -0.2,-0.6 -0.1,-0.7 -0.1,-0.7 -0.1,-0.6 0,-0.7 0.1,-0.7 0.1,-0.7 0.1,-0.6 0.2,-0.7 0.3,-0.6 0.3,-0.6 0.3,-0.6 0.4,-0.6 0.4,-0.5 0.5,-0.5 0.5,-0.5 0.5,-0.4 0.6,-0.4 0.6,-0.3 0.6,-0.3 0.6,-0.2 0.7,-0.2 0.7,-0.1 0.6,-0.1 0.7,-0.1 0.7,0 0.7,0.1 0.7,0.1 0.6,0.2 0.7,0.2 0.6,0.3 0.6,0.3 0.6,0.3 0.5,0.4 0.6,0.5 0.4,0.4 0.5,0.6 0.4,0.5 0.4,0.6 0.3,0.6 0.3,0.6 0.2,0.6 0.2,0.7 0.1,0.7 0.1,0.6 0,0.7"
       id="path3170" /><path
       style="fill:none;stroke:#000000;stroke-width:0.70899999;stroke-linecap:round;stroke-linejoin:round;stroke-miterlimit:10;stroke-opacity:1;stroke-dasharray:none"
       d="m 1022.7,596.5 0,9"
       id="path3168" /><path
       style="fill:none;stroke:#000000;stroke-width:0.70899999;stroke-linecap:round;stroke-linejoin:round;stroke-miterlimit:10;stroke-opacity:1;stroke-dasharray:none"
       d="m 1042.5,596.5 -19.8,0"
       id="path3166" /><path
       style="fill:none;stroke:#000000;stroke-width:0.70899999;stroke-linecap:round;stroke-linejoin:round;stroke-miterlimit:10;stroke-opacity:1;stroke-dasharray:none"
       d="m 1042.5,590.2 0,6.3"
       id="path3164" /><path
       style="fill:none;stroke:#000000;stroke-width:0.70899999;stroke-linecap:round;stroke-linejoin:round;stroke-miterlimit:10;stroke-opacity:1;stroke-dasharray:none"
       d="m 1035.3,583 0.6,0 0.6,0.1 0.7,0.2 0.6,0.2 0.5,0.2 0.6,0.3 0.5,0.3 0.5,0.4 0.5,0.4 0.4,0.5 0.4,0.5 0.3,0.5 0.3,0.6 0.3,0.6 0.1,0.6 0.2,0.6 0.1,0.6 0,0.6"
       id="path3162" /><path
       style="fill:none;stroke:#000000;stroke-width:0.70899999;stroke-linecap:round;stroke-linejoin:round;stroke-miterlimit:10;stroke-opacity:1;stroke-dasharray:none"
       d="m 995.6,583 39.7,0"
       id="path3160" /><path
       style="fill:none;stroke:#000000;stroke-width:0.70899999;stroke-linecap:round;stroke-linejoin:round;stroke-miterlimit:10;stroke-opacity:1;stroke-dasharray:none"
       d="m 977.7,601 0,-1 0.1,-1 0.1,-1 0.2,-0.9 0.2,-0.9 0.3,-1 0.4,-0.9 0.4,-0.9 0.4,-0.8 0.5,-0.9 0.5,-0.8 0.6,-0.8 0.6,-0.8 0.6,-0.7 0.7,-0.7 0.7,-0.6 0.8,-0.6 0.8,-0.6 0.8,-0.5 0.8,-0.5 0.9,-0.4 0.9,-0.4 0.9,-0.3 0.9,-0.3 1,-0.3 0.9,-0.1 1,-0.2 1,-0.1 0.9,0"
       id="path3158" /><path
       style="fill:none;stroke:#000000;stroke-width:0.70899999;stroke-linecap:round;stroke-linejoin:round;stroke-miterlimit:10;stroke-opacity:1;stroke-dasharray:none"
       d="m 977.7,601.1 0,-0.1"
       id="path3156" /><path
       style="fill:none;stroke:#000000;stroke-width:0.70899999;stroke-linecap:round;stroke-linejoin:round;stroke-miterlimit:10;stroke-opacity:1;stroke-dasharray:none"
       d="m 995.6,619 -0.9,0 -1,-0.1 -1,-0.1 -0.9,-0.2 -1,-0.2 -0.9,-0.3 -0.9,-0.4 -0.9,-0.3 -0.9,-0.5 -0.8,-0.4 -0.8,-0.6 -0.8,-0.5 -0.8,-0.6 -0.7,-0.7 -0.7,-0.7 -0.6,-0.7 -0.6,-0.8 -0.6,-0.7 -0.5,-0.9 -0.5,-0.8 -0.4,-0.9 -0.4,-0.9 -0.4,-0.9 -0.3,-0.9 -0.2,-1 -0.2,-0.9 -0.1,-1 -0.1,-0.9 0,-1"
       id="path3154" /><path
       style="fill:none;stroke:#000000;stroke-width:0.70899999;stroke-linecap:round;stroke-linejoin:round;stroke-miterlimit:10;stroke-opacity:1;stroke-dasharray:none"
       d="m 1035.3,619 -39.7,0"
       id="path3152" /><path
       style="fill:none;stroke:#000000;stroke-width:0.70899999;stroke-linecap:round;stroke-linejoin:round;stroke-miterlimit:10;stroke-opacity:1;stroke-dasharray:none"
       d="m 1042.5,611.8 0,0.6 -0.1,0.7 -0.2,0.6 -0.1,0.6 -0.3,0.6 -0.3,0.5 -0.3,0.6 -0.4,0.5 -0.4,0.4 -0.5,0.4 -0.5,0.4 -0.5,0.4 -0.6,0.2 -0.5,0.3 -0.6,0.2 -0.7,0.1 -0.6,0.1 -0.6,0"
       id="path3150" /><path
       style="fill:none;stroke:#000000;stroke-width:0.70899999;stroke-linecap:round;stroke-linejoin:round;stroke-miterlimit:10;stroke-opacity:1;stroke-dasharray:none"
       d="m 1042.5,605.5 0,6.3"
       id="path3148" /><path
       style="fill:none;stroke:#000000;stroke-width:0.70899999;stroke-linecap:round;stroke-linejoin:round;stroke-miterlimit:10;stroke-opacity:1;stroke-dasharray:none"
       d="m 1022.7,605.5 19.8,0"
       id="path18" /><path
       style="fill:none;stroke:#ff0000;stroke-width:0.70899999000000002;stroke-linecap:round;stroke-linejoin:round;stroke-miterlimit:10;stroke-opacity:1;stroke-dasharray:none"
       d="m 1297.7,825.8 0,0.7 -0.1,0.6 -0.1,0.7 -0.2,0.7 -0.2,0.6 -0.3,0.6 -0.3,0.6 -0.4,0.6 -0.4,0.5 -0.4,0.6 -0.5,0.4 -0.5,0.5 -0.6,0.4 -0.6,0.3 -0.6,0.3 -0.6,0.3 -0.7,0.2 -0.6,0.2 -0.7,0.1 -0.7,0.1 -0.7,0 -0.6,-0.1 -0.7,-0.1 -0.7,-0.1 -0.6,-0.2 -0.7,-0.2 -0.6,-0.3 -0.6,-0.3 -0.5,-0.4 -0.6,-0.4 -0.5,-0.5 -0.5,-0.5 -0.4,-0.5 -0.4,-0.6 -0.3,-0.6 -0.3,-0.6 -0.3,-0.6 -0.2,-0.7 -0.1,-0.6 -0.1,-0.7 -0.1,-0.7 0,-0.7 0.1,-0.6 0.1,-0.7 0.1,-0.7 0.2,-0.6 0.3,-0.7 0.3,-0.6 0.3,-0.6 0.4,-0.5 0.4,-0.5 0.5,-0.5 0.5,-0.5 0.6,-0.4 0.5,-0.4 0.6,-0.3 0.6,-0.3 0.7,-0.3 0.6,-0.1 0.7,-0.2 0.7,-0.1 0.6,0 0.7,0 0.7,0.1 0.7,0.1 0.6,0.1 0.7,0.3 0.6,0.2 0.6,0.3 0.6,0.4 0.6,0.4 0.5,0.4 0.5,0.5 0.4,0.5 0.4,0.6 0.4,0.5 0.3,0.6 0.3,0.7 0.2,0.6 0.2,0.7 0.1,0.6 0.1,0.7 0,0.7"
       id="path3196" /><path
       style="fill:none;stroke:#000000;stroke-width:0.70899999;stroke-linecap:round;stroke-linejoin:round;stroke-miterlimit:10;stroke-opacity:1;stroke-dasharray:none"
       d="m 1315.7,821.3 0,9"
       id="path3194" /><path
       style="fill:none;stroke:#000000;stroke-width:0.70899999;stroke-linecap:round;stroke-linejoin:round;stroke-miterlimit:10;stroke-opacity:1;stroke-dasharray:none"
       d="m 1335.5,821.3 -19.8,0"
       id="path3192" /><path
       style="fill:none;stroke:#000000;stroke-width:0.70899999;stroke-linecap:round;stroke-linejoin:round;stroke-miterlimit:10;stroke-opacity:1;stroke-dasharray:none"
       d="m 1335.5,815 0,6.3"
       id="path3190" /><path
       style="fill:none;stroke:#000000;stroke-width:0.70899999;stroke-linecap:round;stroke-linejoin:round;stroke-miterlimit:10;stroke-opacity:1;stroke-dasharray:none"
       d="m 1328.3,807.8 0.6,0 0.7,0.1 0.6,0.1 0.6,0.2 0.6,0.3 0.5,0.2 0.5,0.4 0.5,0.4 0.5,0.4 0.4,0.5 0.4,0.4 0.4,0.6 0.2,0.5 0.3,0.6 0.2,0.6 0.1,0.6 0.1,0.7 0,0.6"
       id="path3188" /><path
       style="fill:none;stroke:#000000;stroke-width:0.70899999;stroke-linecap:round;stroke-linejoin:round;stroke-miterlimit:10;stroke-opacity:1;stroke-dasharray:none"
       d="m 1288.6,807.8 39.7,0"
       id="path3186" /><path
       style="fill:none;stroke:#000000;stroke-width:0.70899999;stroke-linecap:round;stroke-linejoin:round;stroke-miterlimit:10;stroke-opacity:1;stroke-dasharray:none"
       d="m 1270.7,825.7 0,-1 0.1,-0.9 0.2,-1 0.1,-0.9 0.3,-1 0.3,-0.9 0.3,-0.9 0.4,-0.9 0.4,-0.9 0.5,-0.8 0.5,-0.9 0.6,-0.7 0.6,-0.8 0.6,-0.7 0.7,-0.7 0.7,-0.7 0.8,-0.6 0.8,-0.5 0.8,-0.6 0.8,-0.4 0.9,-0.5 0.9,-0.3 0.9,-0.4 0.9,-0.3 1,-0.2 0.9,-0.2 1,-0.1 1,-0.1 0.9,0"
       id="path3184" /><path
       style="fill:none;stroke:#000000;stroke-width:0.70899999;stroke-linecap:round;stroke-linejoin:round;stroke-miterlimit:10;stroke-opacity:1;stroke-dasharray:none"
       d="m 1270.7,825.9 0,-0.2"
       id="path3182" /><path
       style="fill:none;stroke:#000000;stroke-width:0.70899999;stroke-linecap:round;stroke-linejoin:round;stroke-miterlimit:10;stroke-opacity:1;stroke-dasharray:none"
       d="m 1288.6,843.8 -0.9,0 -1,-0.1 -1,-0.2 -0.9,-0.1 -1,-0.3 -0.9,-0.3 -0.9,-0.3 -0.9,-0.4 -0.9,-0.4 -0.8,-0.5 -0.8,-0.5 -0.8,-0.6 -0.8,-0.6 -0.7,-0.6 -0.7,-0.7 -0.6,-0.7 -0.6,-0.8 -0.6,-0.8 -0.5,-0.8 -0.5,-0.9 -0.4,-0.8 -0.4,-0.9 -0.3,-0.9 -0.3,-1 -0.3,-0.9 -0.1,-0.9 -0.2,-1 -0.1,-1 0,-0.9"
       id="path3180" /><path
       style="fill:none;stroke:#000000;stroke-width:0.70899999;stroke-linecap:round;stroke-linejoin:round;stroke-miterlimit:10;stroke-opacity:1;stroke-dasharray:none"
       d="m 1328.3,843.8 -39.7,0"
       id="path3178" /><path
       style="fill:none;stroke:#000000;stroke-width:0.70899999;stroke-linecap:round;stroke-linejoin:round;stroke-miterlimit:10;stroke-opacity:1;stroke-dasharray:none"
       d="m 1335.5,836.6 0,0.6 -0.1,0.6 -0.1,0.6 -0.2,0.6 -0.3,0.6 -0.2,0.6 -0.4,0.5 -0.4,0.5 -0.4,0.5 -0.5,0.4 -0.5,0.4 -0.5,0.3 -0.5,0.3 -0.6,0.2 -0.6,0.2 -0.6,0.2 -0.7,0.1 -0.6,0"
       id="path3176" /><path
       style="fill:none;stroke:#000000;stroke-width:0.70899999;stroke-linecap:round;stroke-linejoin:round;stroke-miterlimit:10;stroke-opacity:1;stroke-dasharray:none"
       d="m 1335.5,830.3 0,6.3"
       id="path3174" /><path
       style="fill:none;stroke:#000000;stroke-width:0.70899999;stroke-linecap:round;stroke-linejoin:round;stroke-miterlimit:10;stroke-opacity:1;stroke-dasharray:none"
       d="m 1315.7,830.3 19.8,0"
       id="path22" /><path
       style="fill:none;stroke:#ff0000;stroke-width:0.70899999000000002;stroke-linecap:round;stroke-linejoin:round;stroke-miterlimit:10;stroke-opacity:1;stroke-dasharray:none"
       d="m 1308.5,598.9 0,0.7 -0.1,0.6 -0.1,0.7 -0.2,0.7 -0.2,0.6 -0.3,0.6 -0.3,0.6 -0.4,0.6 -0.4,0.6 -0.4,0.5 -0.5,0.4 -0.5,0.5 -0.6,0.4 -0.6,0.3 -0.6,0.3 -0.6,0.3 -0.6,0.2 -0.7,0.2 -0.7,0.1 -0.7,0.1 -0.6,0 -0.7,-0.1 -0.7,0 -0.7,-0.2 -0.6,-0.2 -0.6,-0.2 -0.7,-0.3 -0.6,-0.3 -0.5,-0.4 -0.6,-0.4 -0.5,-0.5 -0.4,-0.5 -0.5,-0.5 -0.3,-0.6 -0.4,-0.6 -0.3,-0.6 -0.2,-0.6 -0.2,-0.7 -0.2,-0.6 -0.1,-0.7 -0.1,-0.7 0,-0.7 0.1,-0.6 0.1,-0.7 0.2,-0.7 0.2,-0.6 0.2,-0.7 0.3,-0.6 0.4,-0.6 0.3,-0.5 0.5,-0.5 0.4,-0.5 0.5,-0.5 0.6,-0.4 0.5,-0.4 0.6,-0.3 0.7,-0.3 0.6,-0.3 0.6,-0.1 0.7,-0.2 0.7,-0.1 0.7,0 0.6,0 0.7,0.1 0.7,0.1 0.7,0.1 0.6,0.3 0.6,0.2 0.6,0.3 0.6,0.4 0.6,0.4 0.5,0.4 0.5,0.5 0.4,0.5 0.4,0.6 0.4,0.5 0.3,0.6 0.3,0.7 0.2,0.6 0.2,0.7 0.1,0.6 0.1,0.7 0,0.7"
       id="path3222" /><path
       style="fill:none;stroke:#000000;stroke-width:0.70899999;stroke-linecap:round;stroke-linejoin:round;stroke-miterlimit:10;stroke-opacity:1;stroke-dasharray:none"
       d="m 1326.5,594.4 0,9"
       id="path3220" /><path
       style="fill:none;stroke:#000000;stroke-width:0.70899999;stroke-linecap:round;stroke-linejoin:round;stroke-miterlimit:10;stroke-opacity:1;stroke-dasharray:none"
       d="m 1346.3,594.4 -19.8,0"
       id="path3218" /><path
       style="fill:none;stroke:#000000;stroke-width:0.70899999;stroke-linecap:round;stroke-linejoin:round;stroke-miterlimit:10;stroke-opacity:1;stroke-dasharray:none"
       d="m 1346.3,588.1 0,6.3"
       id="path3216" /><path
       style="fill:none;stroke:#000000;stroke-width:0.70899999;stroke-linecap:round;stroke-linejoin:round;stroke-miterlimit:10;stroke-opacity:1;stroke-dasharray:none"
       d="m 1339.1,580.9 0.7,0 0.6,0.1 0.6,0.1 0.6,0.2 0.6,0.3 0.5,0.2 0.6,0.4 0.5,0.4 0.4,0.4 0.5,0.5 0.3,0.5 0.4,0.5 0.3,0.5 0.2,0.6 0.2,0.6 0.1,0.6 0.1,0.7 0,0.6"
       id="path3214" /><path
       style="fill:none;stroke:#000000;stroke-width:0.70899999;stroke-linecap:round;stroke-linejoin:round;stroke-miterlimit:10;stroke-opacity:1;stroke-dasharray:none"
       d="m 1299.5,580.9 39.6,0"
       id="path3212" /><path
       style="fill:none;stroke:#000000;stroke-width:0.70899999;stroke-linecap:round;stroke-linejoin:round;stroke-miterlimit:10;stroke-opacity:1;stroke-dasharray:none"
       d="m 1281.5,598.8 0.1,-1 0,-0.9 0.2,-1 0.2,-0.9 0.2,-1 0.3,-0.9 0.3,-0.9 0.4,-0.9 0.4,-0.9 0.5,-0.8 0.5,-0.9 0.6,-0.7 0.6,-0.8 0.7,-0.7 0.6,-0.7 0.8,-0.7 0.7,-0.6 0.8,-0.5 0.8,-0.6 0.9,-0.4 0.8,-0.5 0.9,-0.3 0.9,-0.4 1,-0.3 0.9,-0.2 1,-0.2 0.9,-0.1 1,-0.1 1,0"
       id="path3210" /><path
       style="fill:none;stroke:#000000;stroke-width:0.70899999;stroke-linecap:round;stroke-linejoin:round;stroke-miterlimit:10;stroke-opacity:1;stroke-dasharray:none"
       d="m 1281.5,599 0,-0.2"
       id="path3208" /><path
       style="fill:none;stroke:#000000;stroke-width:0.70899999;stroke-linecap:round;stroke-linejoin:round;stroke-miterlimit:10;stroke-opacity:1;stroke-dasharray:none"
       d="m 1299.5,616.9 -1,0 -1,-0.1 -0.9,-0.2 -1,-0.1 -0.9,-0.3 -1,-0.3 -0.9,-0.3 -0.9,-0.4 -0.8,-0.4 -0.9,-0.5 -0.8,-0.5 -0.8,-0.6 -0.7,-0.6 -0.8,-0.6 -0.6,-0.7 -0.7,-0.7 -0.6,-0.8 -0.6,-0.8 -0.5,-0.8 -0.5,-0.8 -0.4,-0.9 -0.4,-0.9 -0.3,-0.9 -0.3,-0.9 -0.2,-1 -0.2,-0.9 -0.2,-1 0,-1 -0.1,-0.9"
       id="path3206" /><path
       style="fill:none;stroke:#000000;stroke-width:0.70899999;stroke-linecap:round;stroke-linejoin:round;stroke-miterlimit:10;stroke-opacity:1;stroke-dasharray:none"
       d="m 1339.1,616.9 -39.6,0"
       id="path3204" /><path
       style="fill:none;stroke:#000000;stroke-width:0.70899999;stroke-linecap:round;stroke-linejoin:round;stroke-miterlimit:10;stroke-opacity:1;stroke-dasharray:none"
       d="m 1346.3,609.7 0,0.6 -0.1,0.6 -0.1,0.6 -0.2,0.6 -0.2,0.6 -0.3,0.6 -0.4,0.5 -0.3,0.5 -0.5,0.5 -0.4,0.4 -0.5,0.4 -0.6,0.3 -0.5,0.3 -0.6,0.2 -0.6,0.2 -0.6,0.2 -0.6,0.1 -0.7,0"
       id="path3202" /><path
       style="fill:none;stroke:#000000;stroke-width:0.70899999;stroke-linecap:round;stroke-linejoin:round;stroke-miterlimit:10;stroke-opacity:1;stroke-dasharray:none"
       d="m 1346.3,603.4 0,6.3"
       id="path3200" /><path
       style="fill:none;stroke:#000000;stroke-width:0.70899999;stroke-linecap:round;stroke-linejoin:round;stroke-miterlimit:10;stroke-opacity:1;stroke-dasharray:none"
       d="m 1326.5,603.4 19.8,0"
       id="path26" /><path
       style="fill:none;stroke:#ff0000;stroke-width:0.70899999000000002;stroke-linecap:round;stroke-linejoin:round;stroke-miterlimit:10;stroke-opacity:1;stroke-dasharray:none"
       d="m 992.9,825.3 0,0.7 -0.1,0.7 -0.1,0.6 -0.2,0.7 -0.2,0.6 -0.3,0.7 -0.3,0.6 -0.4,0.5 -0.4,0.6 -0.5,0.5 -0.4,0.5 -0.6,0.4 -0.5,0.4 -0.6,0.4 -0.6,0.3 -0.6,0.2 -0.7,0.3 -0.6,0.1 -0.7,0.1 -0.7,0.1 -0.7,0 -0.6,0 -0.7,-0.1 -0.7,-0.2 -0.6,-0.1 -0.7,-0.3 -0.6,-0.3 -0.6,-0.3 -0.6,-0.4 -0.5,-0.4 -0.5,-0.5 -0.5,-0.5 -0.4,-0.5 -0.4,-0.5 -0.3,-0.6 -0.3,-0.6 -0.3,-0.7 -0.2,-0.6 -0.1,-0.7 -0.1,-0.7 -0.1,-0.6 0,-0.7 0.1,-0.7 0.1,-0.7 0.1,-0.6 0.2,-0.7 0.3,-0.6 0.3,-0.6 0.3,-0.6 0.4,-0.6 0.4,-0.5 0.5,-0.5 0.5,-0.5 0.5,-0.4 0.6,-0.4 0.6,-0.3 0.6,-0.3 0.7,-0.2 0.6,-0.2 0.7,-0.2 0.7,0 0.6,-0.1 0.7,0 0.7,0.1 0.7,0.1 0.6,0.2 0.7,0.2 0.6,0.3 0.6,0.3 0.6,0.3 0.5,0.4 0.6,0.5 0.4,0.4 0.5,0.5 0.4,0.6 0.4,0.6 0.3,0.6 0.3,0.6 0.2,0.6 0.2,0.7 0.1,0.7 0.1,0.6 0,0.7"
       id="path3248" /><path
       style="fill:none;stroke:#000000;stroke-width:0.70899999;stroke-linecap:round;stroke-linejoin:round;stroke-miterlimit:10;stroke-opacity:1;stroke-dasharray:none"
       d="m 1010.9,820.8 0,9"
       id="path3246" /><path
       style="fill:none;stroke:#000000;stroke-width:0.70899999;stroke-linecap:round;stroke-linejoin:round;stroke-miterlimit:10;stroke-opacity:1;stroke-dasharray:none"
       d="m 1030.7,820.8 -19.8,0"
       id="path3244" /><path
       style="fill:none;stroke:#000000;stroke-width:0.70899999;stroke-linecap:round;stroke-linejoin:round;stroke-miterlimit:10;stroke-opacity:1;stroke-dasharray:none"
       d="m 1030.7,814.5 0,6.3"
       id="path3242" /><path
       style="fill:none;stroke:#000000;stroke-width:0.70899999;stroke-linecap:round;stroke-linejoin:round;stroke-miterlimit:10;stroke-opacity:1;stroke-dasharray:none"
       d="m 1023.5,807.3 0.6,0 0.7,0.1 0.6,0.2 0.6,0.2 0.5,0.2 0.6,0.3 0.5,0.3 0.5,0.4 0.5,0.4 0.4,0.5 0.4,0.5 0.3,0.5 0.3,0.6 0.3,0.6 0.2,0.6 0.1,0.6 0.1,0.6 0,0.6"
       id="path3240" /><path
       style="fill:none;stroke:#000000;stroke-width:0.70899999;stroke-linecap:round;stroke-linejoin:round;stroke-miterlimit:10;stroke-opacity:1;stroke-dasharray:none"
       d="m 983.8,807.3 39.7,0"
       id="path3238" /><path
       style="fill:none;stroke:#000000;stroke-width:0.70899999;stroke-linecap:round;stroke-linejoin:round;stroke-miterlimit:10;stroke-opacity:1;stroke-dasharray:none"
       d="m 965.9,825.2 0,-0.9 0.1,-1 0.1,-1 0.2,-0.9 0.3,-1 0.2,-0.9 0.4,-0.9 0.4,-0.9 0.4,-0.9 0.5,-0.8 0.5,-0.8 0.6,-0.8 0.6,-0.8 0.6,-0.7 0.7,-0.7 0.7,-0.6 0.8,-0.6 0.8,-0.6 0.8,-0.5 0.8,-0.5 0.9,-0.4 0.9,-0.4 0.9,-0.3 0.9,-0.3 1,-0.3 0.9,-0.1 1,-0.2 1,-0.1 0.9,0"
       id="path3236" /><path
       style="fill:none;stroke:#000000;stroke-width:0.70899999;stroke-linecap:round;stroke-linejoin:round;stroke-miterlimit:10;stroke-opacity:1;stroke-dasharray:none"
       d="m 965.9,825.4 0,-0.2"
       id="path3234" /><path
       style="fill:none;stroke:#000000;stroke-width:0.70899999;stroke-linecap:round;stroke-linejoin:round;stroke-miterlimit:10;stroke-opacity:1;stroke-dasharray:none"
       d="m 983.8,843.3 -0.9,0 -1,-0.1 -1,-0.1 -0.9,-0.2 -1,-0.2 -0.9,-0.3 -0.9,-0.4 -0.9,-0.3 -0.9,-0.5 -0.8,-0.5 -0.8,-0.5 -0.8,-0.5 -0.8,-0.6 -0.7,-0.7 -0.7,-0.7 -0.6,-0.7 -0.6,-0.8 -0.6,-0.8 -0.5,-0.8 -0.5,-0.8 -0.4,-0.9 -0.4,-0.9 -0.4,-0.9 -0.2,-0.9 -0.3,-1 -0.2,-0.9 -0.1,-1 -0.1,-0.9 0,-1"
       id="path3232" /><path
       style="fill:none;stroke:#000000;stroke-width:0.70899999;stroke-linecap:round;stroke-linejoin:round;stroke-miterlimit:10;stroke-opacity:1;stroke-dasharray:none"
       d="m 1023.5,843.3 -39.7,0"
       id="path3230" /><path
       style="fill:none;stroke:#000000;stroke-width:0.70899999;stroke-linecap:round;stroke-linejoin:round;stroke-miterlimit:10;stroke-opacity:1;stroke-dasharray:none"
       d="m 1030.7,836.1 0,0.6 -0.1,0.7 -0.1,0.6 -0.2,0.6 -0.3,0.6 -0.3,0.5 -0.3,0.5 -0.4,0.5 -0.4,0.5 -0.5,0.4 -0.5,0.4 -0.5,0.4 -0.6,0.2 -0.5,0.3 -0.6,0.2 -0.6,0.1 -0.7,0.1 -0.6,0"
       id="path3228" /><path
       style="fill:none;stroke:#000000;stroke-width:0.70899999;stroke-linecap:round;stroke-linejoin:round;stroke-miterlimit:10;stroke-opacity:1;stroke-dasharray:none"
       d="m 1030.7,829.8 0,6.3"
       id="path3226" /><path
       style="fill:none;stroke:#000000;stroke-width:0.70899999;stroke-linecap:round;stroke-linejoin:round;stroke-miterlimit:10;stroke-opacity:1;stroke-dasharray:none"
       d="m 1010.9,829.8 19.8,0"
       id="path30" /><path
       style="fill:none;stroke:#ff0000;stroke-width:0.70899999000000002;stroke-linecap:round;stroke-linejoin:round;stroke-miterlimit:10;stroke-opacity:1;stroke-dasharray:none"
       d="m 1144.4,496.6 -18,0"
       id="path3266" /><path
       style="fill:none;stroke:#ff0000;stroke-width:0.70899999000000002;stroke-linecap:round;stroke-linejoin:round;stroke-miterlimit:10;stroke-opacity:1;stroke-dasharray:none"
       d="m 1126.4,496.6 0,-9"
       id="path3264" /><path
       style="fill:none;stroke:#ff0000;stroke-width:0.70899999000000002;stroke-linecap:round;stroke-linejoin:round;stroke-miterlimit:10;stroke-opacity:1;stroke-dasharray:none"
       d="m 1126.4,487.6 18,0"
       id="path3262" /><path
       style="fill:none;stroke:#ff0000;stroke-width:0.70899999000000002;stroke-linecap:round;stroke-linejoin:round;stroke-miterlimit:10;stroke-opacity:1;stroke-dasharray:none"
       d="m 1144.4,487.6 0,9"
       id="path3260" /><path
       style="fill:none;stroke:#ff0000;stroke-width:0.70899999000000002;stroke-linecap:round;stroke-linejoin:round;stroke-miterlimit:10;stroke-opacity:1;stroke-dasharray:none"
       d="m 1198.4,487.6 18,0"
       id="path3258" /><path
       style="fill:none;stroke:#ff0000;stroke-width:0.70899999000000002;stroke-linecap:round;stroke-linejoin:round;stroke-miterlimit:10;stroke-opacity:1;stroke-dasharray:none"
       d="m 1216.4,487.6 0,9"
       id="path3256" /><path
       style="fill:none;stroke:#ff0000;stroke-width:0.70899999000000002;stroke-linecap:round;stroke-linejoin:round;stroke-miterlimit:10;stroke-opacity:1;stroke-dasharray:none"
       d="m 1216.4,496.6 -18,0"
       id="path3254" /><path
       style="fill:none;stroke:#ff0000;stroke-width:0.70899999000000002;stroke-linecap:round;stroke-linejoin:round;stroke-miterlimit:10;stroke-opacity:1;stroke-dasharray:none"
       d="m 1198.4,496.6 0,-9"
       id="path3252" /><path
       style="fill:none;stroke:#ffff00;stroke-width:0.70899999000000002;stroke-linecap:round;stroke-linejoin:round;stroke-miterlimit:10;stroke-opacity:1;stroke-dasharray:none"
       d="m 1171.4,425.5 2.9,0.1 3,0.2 2.9,0.3 2.9,0.5 2.9,0.5 2.9,0.7 2.8,0.9 2.8,0.9 2.7,1.1 2.7,1.2 2.7,1.4 2.5,1.4 2.5,1.5 2.5,1.7 2.3,1.8 2.3,1.8 2.2,2 2.1,2 2,2.2 1.9,2.2 1.9,2.4 1.7,2.4 1.6,2.4 1.5,2.6 1.3,2.6 1.3,2.6 1.1,2.8 1.1,2.7 0.9,2.8 0.7,2.9 0.7,2.8 0.5,2.9 0.4,3 0.3,2.9 0.1,2.9 0,3 -0.1,2.9 -0.3,3 -0.4,2.9 -0.5,2.9 -0.7,2.9 -0.7,2.8 -0.9,2.8 -1.1,2.8 -1.1,2.7 -1.3,2.7 -1.3,2.6 -1.5,2.5 -1.6,2.5 -1.7,2.4 -1.9,2.3 -1.9,2.2 -2,2.2 -2.1,2 -2.2,2 -2.3,1.9 -2.3,1.7 -2.5,1.7 -2.5,1.5 -2.5,1.5 -2.7,1.3 -2.7,1.2 -2.7,1.1 -2.8,0.9 -2.8,0.9 -2.9,0.7 -2.9,0.6 -2.9,0.4 -2.9,0.4 -3,0.2 -2.9,0 -2.9,0 -3,-0.2 -2.9,-0.4 -2.9,-0.4 -2.9,-0.6 -2.9,-0.7 -2.8,-0.9 -2.8,-0.9 -2.7,-1.1 -2.7,-1.2 -2.6,-1.3 -2.6,-1.5 -2.5,-1.5 -2.5,-1.7 -2.3,-1.7 -2.3,-1.9 -2.2,-2 -2.1,-2 -2,-2.2 -1.9,-2.2 -1.9,-2.3 -1.7,-2.4 -1.6,-2.5 -1.5,-2.5 -1.3,-2.6 -1.3,-2.7 -1.1,-2.7 -1.1,-2.8 -0.9,-2.8 -0.7,-2.8 -0.7,-2.9 -0.5,-2.9 -0.4,-2.9 -0.3,-3 -0.1,-2.9 0,-3 0.1,-2.9 0.3,-2.9 0.4,-3 0.5,-2.9 0.7,-2.8 0.7,-2.9 0.9,-2.8 1.1,-2.7 1.1,-2.8 1.3,-2.6 1.3,-2.6 1.5,-2.6 1.6,-2.4 1.7,-2.4 1.9,-2.4 1.9,-2.2 2,-2.2 2.1,-2 2.2,-2 2.3,-1.8 2.3,-1.8 2.5,-1.7 2.5,-1.5 2.6,-1.4 2.6,-1.4 2.7,-1.2 2.7,-1.1 2.8,-0.9 2.8,-0.9 2.9,-0.7 2.9,-0.5 2.9,-0.5 2.9,-0.3 3,-0.2 2.9,-0.1"
       id="path34" /><path
       style="fill:none;stroke:#000000;stroke-width:0.70899999;stroke-linecap:round;stroke-linejoin:round;stroke-miterlimit:10;stroke-opacity:1;stroke-dasharray:none"
       d="m 1294,492.7 -0.1,5.5 -0.4,5.4 -0.6,5.4 -0.8,5.3 -1.1,5.3 -1.3,5.3 -1.5,5.2 -1.8,5.1 -2,5.1 -2.2,4.9 -2.4,4.9 -2.7,4.7 -2.8,4.6 -3.1,4.5 -3.2,4.4 -3.4,4.1 -3.7,4.1 -3.8,3.9 -3.9,3.7 -4.1,3.5 -4.3,3.3 -4.4,3.2 -4.6,2.9 -4.6,2.8 -4.8,2.5 -4.9,2.3 -5,2.1 -5.1,1.9 -5.2,1.7 -5.2,1.4 -5.3,1.2 -5.4,1 -5.3,0.7 -5.4,0.4 -5.5,0.3 -5.4,0 -5.4,-0.3 -5.4,-0.4 -5.4,-0.7 -5.3,-1 -5.3,-1.2 -5.2,-1.4 -5.2,-1.7 -5.1,-1.9 -5,-2.1 -4.9,-2.3 -4.8,-2.5 -4.7,-2.8 -4.5,-2.9 -4.4,-3.2 -4.3,-3.3 -4.1,-3.5 -4,-3.7 -3.8,-3.9 -3.6,-4.1 -3.4,-4.1 -3.3,-4.4 -3,-4.5 -2.9,-4.6 -2.6,-4.7 -2.4,-4.9 -2.3,-4.9 -1.9,-5.1 -1.8,-5.1 -1.6,-5.2 -1.3,-5.3 -1,-5.3 -0.9,-5.3 -0.6,-5.4 -0.3,-5.4 -0.1,-5.5 0.1,-5.4 0.3,-5.4 0.6,-5.4 0.9,-5.3 1,-5.4 1.3,-5.2 1.6,-5.2 1.8,-5.2 1.9,-5 2.3,-4.9 2.4,-4.9 2.6,-4.7 2.9,-4.6 3,-4.5 3.3,-4.4 3.4,-4.2 3.6,-4 3.8,-3.9 4,-3.7 4.1,-3.5 4.3,-3.4 4.4,-3.1 4.5,-3 4.7,-2.7 4.8,-2.5 4.9,-2.4 5,-2.1 5.1,-1.9 5.2,-1.6 5.2,-1.4 5.3,-1.2 5.3,-1 5.4,-0.7 5.4,-0.5 5.4,-0.2 5.4,0 5.5,0.2 5.4,0.5 5.3,0.7 5.4,1 5.3,1.2 5.2,1.4 5.2,1.6 5.1,1.9 5,2.1 4.9,2.4 4.8,2.5 4.6,2.7 4.6,3 4.4,3.1 4.3,3.4 4.1,3.5 3.9,3.7 3.8,3.9 3.7,4 3.4,4.2 3.2,4.4 3.1,4.5 2.8,4.6 2.7,4.7 2.4,4.9 2.2,4.9 2,5 1.8,5.2 1.5,5.2 1.3,5.2 1.1,5.4 0.8,5.3 0.6,5.4 0.4,5.4 0.1,5.4"
       id="path3284" /><path
       style="fill:none;stroke:#ffff00;stroke-width:0.70899999000000002;stroke-linecap:round;stroke-linejoin:round;stroke-miterlimit:10;stroke-opacity:1;stroke-dasharray:none"
       d="m 1081.5,497.2 -23,0"
       id="path3282" /><path
       style="fill:none;stroke:#ffff00;stroke-width:0.70899999000000002;stroke-linecap:round;stroke-linejoin:round;stroke-miterlimit:10;stroke-opacity:1;stroke-dasharray:none"
       d="m 1058.5,488.2 0,9"
       id="path3280" /><path
       style="fill:none;stroke:#ffff00;stroke-width:0.70899999000000002;stroke-linecap:round;stroke-linejoin:round;stroke-miterlimit:10;stroke-opacity:1;stroke-dasharray:none"
       d="m 1081.5,488.2 -23,0"
       id="path3278" /><path
       style="fill:none;stroke:#ffff00;stroke-width:0.70899999000000002;stroke-linecap:round;stroke-linejoin:round;stroke-miterlimit:10;stroke-opacity:1;stroke-dasharray:none"
       d="m 1081.5,488.2 0.4,-4.6 0.6,-4.6 0.8,-4.6 1.1,-4.5 1.3,-4.4 1.5,-4.4 1.7,-4.3 2,-4.2 2.2,-4.1 2.3,-4 2.6,-3.8 2.8,-3.8 3,-3.5 3.1,-3.4 3.4,-3.3 3.4,-3 3.7,-2.9 3.7,-2.7 4,-2.5 4,-2.3 4.1,-2.1 4.3,-1.8 4.3,-1.7 4.5,-1.4 4.4,-1.2 4.6,-0.9 4.6,-0.7 4.6,-0.5 4.6,-0.2 4.7,0 4.6,0.2 4.6,0.5 4.6,0.7 4.5,0.9 4.5,1.2 4.4,1.4 4.4,1.7 4.2,1.8 4.2,2.1 4,2.3 3.9,2.5 3.8,2.7 3.6,2.9 3.5,3 3.3,3.3 3.2,3.4 3,3.5 2.7,3.8 2.6,3.8 2.4,4 2.2,4.1 1.9,4.2 1.8,4.3 1.5,4.4 1.3,4.4 1.1,4.5 0.8,4.6 0.6,4.6 0.3,4.6"
       id="path3276" /><path
       style="fill:none;stroke:#ffff00;stroke-width:0.70899999000000002;stroke-linecap:round;stroke-linejoin:round;stroke-miterlimit:10;stroke-opacity:1;stroke-dasharray:none"
       d="m 1284.4,488.2 -23.1,0"
       id="path3274" /><path
       style="fill:none;stroke:#ffff00;stroke-width:0.70899999000000002;stroke-linecap:round;stroke-linejoin:round;stroke-miterlimit:10;stroke-opacity:1;stroke-dasharray:none"
       d="m 1284.4,488.2 0,9"
       id="path3272" /><path
       style="fill:none;stroke:#ffff00;stroke-width:0.70899999000000002;stroke-linecap:round;stroke-linejoin:round;stroke-miterlimit:10;stroke-opacity:1;stroke-dasharray:none"
       d="m 1284.4,497.2 -23.1,0"
       id="path3270" /><path
       style="fill:none;stroke:#ffff00;stroke-width:0.70899999000000002;stroke-linecap:round;stroke-linejoin:round;stroke-miterlimit:10;stroke-opacity:1;stroke-dasharray:none"
       d="m 1261.3,497.2 -0.3,4.7 -0.6,4.6 -0.8,4.5 -1.1,4.5 -1.3,4.5 -1.5,4.4 -1.8,4.3 -1.9,4.2 -2.2,4.1 -2.4,4 -2.6,3.8 -2.7,3.7 -3,3.6 -3.2,3.4 -3.3,3.2 -3.5,3.1 -3.6,2.9 -3.8,2.7 -3.9,2.5 -4,2.3 -4.2,2 -4.2,1.9 -4.4,1.6 -4.4,1.4 -4.5,1.2 -4.5,1 -4.6,0.7 -4.6,0.5 -4.6,0.2 -4.7,0 -4.6,-0.2 -4.6,-0.5 -4.6,-0.7 -4.6,-1 -4.4,-1.2 -4.5,-1.4 -4.3,-1.6 -4.3,-1.9 -4.1,-2 -4,-2.3 -4,-2.5 -3.7,-2.7 -3.7,-2.9 -3.4,-3.1 -3.4,-3.2 -3.1,-3.4 -3,-3.6 -2.8,-3.7 -2.6,-3.8 -2.3,-4 -2.2,-4.1 -2,-4.2 -1.7,-4.3 -1.5,-4.4 -1.3,-4.5 -1.1,-4.5 -0.8,-4.5 -0.6,-4.6 -0.4,-4.7"
       id="path38" /></g></svg>